<?xml version="1.0" encoding="utf-8"?>
<!-- Generator: Adobe Illustrator 26.5.0, SVG Export Plug-In . SVG Version: 6.00 Build 0)  -->
<svg version="1.1" id="レイヤー_1" xmlns="http://www.w3.org/2000/svg" xmlns:xlink="http://www.w3.org/1999/xlink" x="0px"
	 y="0px" viewBox="0 0 64 64" style="enable-background:new 0 0 64 64;" xml:space="preserve">
<style type="text/css">
	.st0{fill:none;}
	.st1{fill:#F7F8F8;}
</style>
<g>
	<path class="st0" d="M24,56h31.5c0.3,0,0.5-0.2,0.5-0.5V48H24V56z"/>
	<rect x="24" y="36" class="st0" width="32" height="6"/>
	<path class="st0" d="M16,42v-6v-6v-6H8v31.5C8,55.8,8.2,56,8.5,56H16v-8V42z"/>
	<rect x="24" y="24" class="st0" width="32" height="6"/>
	<path class="st0" d="M55.5,8h-47C8.2,8,8,8.2,8,8.5V16h8h8h32V8.5C56,8.2,55.8,8,55.5,8z"/>
	<path class="st1" d="M55.5,0h-47C3.8,0,0,3.8,0,8.5V16v8v31.5C0,60.2,3.8,64,8.5,64H16h8h31.5c4.7,0,8.5-3.8,8.5-8.5V48v-6v-6v-6
		v-6v-8V8.5C64,3.8,60.2,0,55.5,0z M8.5,56C8.2,56,8,55.8,8,55.5V24h8v6v6v6v6v8H8.5z M56,55.5c0,0.3-0.2,0.5-0.5,0.5H24v-8h32V55.5
		z M56,42H24v-6h32V42z M56,30H24v-6h32V30z M24,16h-8H8V8.5C8,8.2,8.2,8,8.5,8h47C55.8,8,56,8.2,56,8.5V16H24z"/>
</g>
</svg>
